<svg width="32" height="30" viewBox="0 0 32 30" fill="none" xmlns="http://www.w3.org/2000/svg">
<rect width="32" height="30" rx="5" fill="#042AEC"/>
<path d="M24.65 16.05H15.8V17.575H22.7C22.175 19.05 21.3 20.25 20.05 21.125C18.8 22.025 17.4 22.45 15.875 22.45C13.925 22.45 12.275 21.775 10.9 20.4C9.55 19.025 8.85 17.35 8.85 15.425C8.85 13.5 9.55 11.85 10.9 10.475C12.275 9.125 13.925 8.425 15.85 8.425C17.325 8.425 18.65 8.85 19.825 9.675C21.025 10.5 21.875 11.575 22.4 12.95H24.25C23.7 11.075 22.625 9.575 21.075 8.425C19.525 7.275 17.725 6.675 15.675 6.675C14.6 6.675 13.525 6.925 12.45 7.375C11.4 7.825 10.475 8.45 9.675 9.25C8.875 10.05 8.25 10.975 7.8 12.025C7.35 13.1 7.1 14.25 7.1 15.45C7.1 16.65 7.35 17.8 7.8 18.85C8.25 19.925 8.875 20.85 9.675 21.65C10.475 22.45 11.4 23.075 12.45 23.525C13.525 23.975 14.65 24.225 15.85 24.225C17.925 24.225 19.775 23.55 21.425 22.225C23.075 20.875 24.1 19.175 24.45 17.1L24.65 16.05Z" fill="white"/>
<path d="M24.65 16.05L25.3376 16.181L25.4959 15.35H24.65V16.05ZM15.8 16.05V15.35H15.1V16.05H15.8ZM15.8 17.575H15.1V18.275H15.8V17.575ZM22.7 17.575L23.3595 17.8097L23.6922 16.875H22.7V17.575ZM20.05 21.125L19.6485 20.5515L19.641 20.5569L20.05 21.125ZM10.9 20.4L10.4005 20.8904L10.405 20.895L10.9 20.4ZM10.9 10.475L10.4095 9.97542L10.4005 9.98459L10.9 10.475ZM19.825 9.675L19.4227 10.2479L19.4284 10.2518L19.825 9.675ZM22.4 12.95L21.746 13.1997L21.918 13.65H22.4V12.95ZM24.25 12.95V13.65H25.1848L24.9217 12.753L24.25 12.95ZM21.075 8.425L21.4921 7.86283L21.075 8.425ZM12.45 7.375L12.1797 6.72927L12.1743 6.7316L12.45 7.375ZM9.675 9.25L9.18003 8.75502L9.18003 8.75502L9.675 9.25ZM7.8 12.025L7.15658 11.7492L7.15429 11.7547L7.8 12.025ZM7.8 18.85L8.44573 18.5797L8.4434 18.5743L7.8 18.85ZM9.675 21.65L9.18003 22.145L9.675 21.65ZM12.45 23.525L12.1742 24.1684L12.1797 24.1707L12.45 23.525ZM21.425 22.225L21.8633 22.7708L21.8683 22.7668L21.425 22.225ZM24.45 17.1L23.7624 16.969L23.761 16.9763L23.7598 16.9836L24.45 17.1ZM24.65 15.35H15.8V16.75H24.65V15.35ZM15.1 16.05V17.575H16.5V16.05H15.1ZM15.8 18.275H22.7V16.875H15.8V18.275ZM22.0405 17.3403C21.5601 18.6901 20.7696 19.7668 19.6486 20.5515L20.4514 21.6985C21.8304 20.7332 22.7899 19.4099 23.3595 17.8097L22.0405 17.3403ZM19.641 20.5569C18.5163 21.3667 17.261 21.75 15.875 21.75V23.15C17.539 23.15 19.0837 22.6833 20.459 21.6931L19.641 20.5569ZM15.875 21.75C14.1081 21.75 12.6369 21.147 11.395 19.905L10.405 20.895C11.9131 22.403 13.7419 23.15 15.875 23.15V21.75ZM11.3995 19.9096C10.1752 18.6626 9.55 17.1626 9.55 15.425H8.15C8.15 17.5374 8.92484 19.3874 10.4005 20.8904L11.3995 19.9096ZM9.55 15.425C9.55 13.6901 10.1732 12.2144 11.3995 10.9654L10.4005 9.98459C8.92675 11.4856 8.15 13.3099 8.15 15.425H9.55ZM11.3904 10.9745C12.6394 9.74824 14.1151 9.125 15.85 9.125V7.725C13.7349 7.725 11.9106 8.50175 10.4096 9.9755L11.3904 10.9745ZM15.85 9.125C17.181 9.125 18.3656 9.5056 19.4228 10.2479L20.2272 9.10211C18.9344 8.1944 17.469 7.725 15.85 7.725V9.125ZM19.4284 10.2518C20.5117 10.9966 21.2718 11.9576 21.746 13.1997L23.054 12.7003C22.4782 11.1924 21.5383 10.0034 20.2216 9.09817L19.4284 10.2518ZM22.4 13.65H24.25V12.25H22.4V13.65ZM24.9217 12.753C24.3273 10.7267 23.1601 9.10038 21.4921 7.86283L20.6579 8.98717C22.0899 10.0496 23.0727 11.4233 23.5783 13.147L24.9217 12.753ZM21.4921 7.86283C19.8186 6.62118 17.8716 5.975 15.675 5.975V7.375C17.5784 7.375 19.2314 7.92881 20.6579 8.98717L21.4921 7.86283ZM15.675 5.975C14.4898 5.975 13.3226 6.25086 12.1797 6.72929L12.7203 8.02071C13.7274 7.59914 14.7102 7.375 15.675 7.375V5.975ZM12.1743 6.7316C11.0432 7.21633 10.0436 7.89143 9.18003 8.75502L10.17 9.74497C10.9064 9.00857 11.7568 8.43367 12.7257 8.0184L12.1743 6.7316ZM9.18003 8.75502C8.31643 9.61862 7.64133 10.6182 7.1566 11.7493L8.4434 12.3007C8.85867 11.3318 9.43357 10.4814 10.17 9.74497L9.18003 8.75502ZM7.15429 11.7547C6.67089 12.9095 6.4 14.1511 6.4 15.45H7.8C7.8 14.3489 8.02911 13.2905 8.44571 12.2953L7.15429 11.7547ZM6.4 15.45C6.4 16.748 6.67054 17.9916 7.1566 19.1257L8.4434 18.5743C8.02946 17.6084 7.8 16.552 7.8 15.45H6.4ZM7.15429 19.1203C7.63951 20.2794 8.31576 21.2807 9.18003 22.145L10.17 21.155C9.43424 20.4193 8.86049 19.5706 8.44571 18.5797L7.15429 19.1203ZM9.18003 22.145C10.0436 23.0086 11.0432 23.6837 12.1743 24.1684L12.7257 22.8816C11.7568 22.4663 10.9064 21.8914 10.17 21.155L9.18003 22.145ZM12.1797 24.1707C13.3325 24.6533 14.5491 24.925 15.85 24.925V23.525C14.7509 23.525 13.7175 23.2967 12.7203 22.8793L12.1797 24.1707ZM15.85 24.925C18.0917 24.925 20.0949 24.1909 21.8633 22.7708L20.9867 21.6792C19.4551 22.9091 17.7583 23.525 15.85 23.525V24.925ZM21.8683 22.7668C23.6419 21.3156 24.7605 19.4676 25.1403 17.2164L23.7598 16.9836C23.4395 18.8824 22.5081 20.4344 20.9817 21.6832L21.8683 22.7668ZM25.1376 17.231L25.3376 16.181L23.9624 15.919L23.7624 16.969L25.1376 17.231Z" fill="white"/>
</svg>
